<svg xmlns="http://www.w3.org/2000/svg" viewBox="0 0 900 320" role="img" aria-labelledby="title desc">
<title id="title">302r | Contribuições</title>
<desc id="desc">Contribuições públicas de 25/08/2026 a 24/09/2026. Total: 27.</desc>
<rect width="900" height="320" rx="10" fill="#0d1117"/>
<g font-family="monospace" fill="#ffffff">
<text x="450" y="36" text-anchor="middle" font-size="18">302r | CONTRIBUIÇÕES</text>
<path d="M65 250.0H855" stroke="#30363d"/>
<text x="48" y="255.0" text-anchor="end" font-size="13">0</text>
<path d="M65 190.0H855" stroke="#30363d"/>
<text x="48" y="195.0" text-anchor="end" font-size="13">9</text>
<path d="M65 130.0H855" stroke="#30363d"/>
<text x="48" y="135.0" text-anchor="end" font-size="13">18</text>
<path d="M65 70.0H855" stroke="#30363d"/>
<text x="48" y="75.0" text-anchor="end" font-size="13">27</text>
<polygon points="65,250 65.0,250.0 91.3,250.0 117.7,250.0 144.0,250.0 170.3,250.0 196.7,250.0 223.0,250.0 249.3,250.0 275.7,250.0 302.0,250.0 328.3,250.0 354.7,250.0 381.0,250.0 407.3,250.0 433.7,250.0 460.0,250.0 486.3,250.0 512.7,250.0 539.0,250.0 565.3,250.0 591.7,250.0 618.0,70.0 644.3,250.0 670.7,250.0 697.0,250.0 723.3,250.0 749.7,250.0 776.0,250.0 802.3,250.0 828.7,250.0 855.0,250.0 855,250" fill="#ffffff" opacity="0.06"/>
<polyline points="65.0,250.0 91.3,250.0 117.7,250.0 144.0,250.0 170.3,250.0 196.7,250.0 223.0,250.0 249.3,250.0 275.7,250.0 302.0,250.0 328.3,250.0 354.7,250.0 381.0,250.0 407.3,250.0 433.7,250.0 460.0,250.0 486.3,250.0 512.7,250.0 539.0,250.0 565.3,250.0 591.7,250.0 618.0,70.0 644.3,250.0 670.7,250.0 697.0,250.0 723.3,250.0 749.7,250.0 776.0,250.0 802.3,250.0 828.7,250.0 855.0,250.0" fill="none" stroke="#ffffff" stroke-width="2.5"/>
<circle cx="65.0" cy="250.0" r="3" fill="#ffffff"><title>25/08: 0</title></circle>
<circle cx="91.3" cy="250.0" r="3" fill="#ffffff"><title>26/08: 0</title></circle>
<circle cx="117.7" cy="250.0" r="3" fill="#ffffff"><title>27/08: 0</title></circle>
<circle cx="144.0" cy="250.0" r="3" fill="#ffffff"><title>28/08: 0</title></circle>
<circle cx="170.3" cy="250.0" r="3" fill="#ffffff"><title>29/08: 0</title></circle>
<circle cx="196.7" cy="250.0" r="3" fill="#ffffff"><title>30/08: 0</title></circle>
<circle cx="223.0" cy="250.0" r="3" fill="#ffffff"><title>31/08: 0</title></circle>
<circle cx="249.3" cy="250.0" r="3" fill="#ffffff"><title>01/09: 0</title></circle>
<circle cx="275.7" cy="250.0" r="3" fill="#ffffff"><title>02/09: 0</title></circle>
<circle cx="302.0" cy="250.0" r="3" fill="#ffffff"><title>03/09: 0</title></circle>
<circle cx="328.3" cy="250.0" r="3" fill="#ffffff"><title>04/09: 0</title></circle>
<circle cx="354.7" cy="250.0" r="3" fill="#ffffff"><title>05/09: 0</title></circle>
<circle cx="381.0" cy="250.0" r="3" fill="#ffffff"><title>06/09: 0</title></circle>
<circle cx="407.3" cy="250.0" r="3" fill="#ffffff"><title>07/09: 0</title></circle>
<circle cx="433.7" cy="250.0" r="3" fill="#ffffff"><title>08/09: 0</title></circle>
<circle cx="460.0" cy="250.0" r="3" fill="#ffffff"><title>09/09: 0</title></circle>
<circle cx="486.3" cy="250.0" r="3" fill="#ffffff"><title>10/09: 0</title></circle>
<circle cx="512.7" cy="250.0" r="3" fill="#ffffff"><title>11/09: 0</title></circle>
<circle cx="539.0" cy="250.0" r="3" fill="#ffffff"><title>12/09: 0</title></circle>
<circle cx="565.3" cy="250.0" r="3" fill="#ffffff"><title>13/09: 0</title></circle>
<circle cx="591.7" cy="250.0" r="3" fill="#ffffff"><title>14/09: 0</title></circle>
<circle cx="618.0" cy="70.0" r="3" fill="#ffffff"><title>15/09: 27</title></circle>
<circle cx="644.3" cy="250.0" r="3" fill="#ffffff"><title>16/09: 0</title></circle>
<circle cx="670.7" cy="250.0" r="3" fill="#ffffff"><title>17/09: 0</title></circle>
<circle cx="697.0" cy="250.0" r="3" fill="#ffffff"><title>18/09: 0</title></circle>
<circle cx="723.3" cy="250.0" r="3" fill="#ffffff"><title>19/09: 0</title></circle>
<circle cx="749.7" cy="250.0" r="3" fill="#ffffff"><title>20/09: 0</title></circle>
<circle cx="776.0" cy="250.0" r="3" fill="#ffffff"><title>21/09: 0</title></circle>
<circle cx="802.3" cy="250.0" r="3" fill="#ffffff"><title>22/09: 0</title></circle>
<circle cx="828.7" cy="250.0" r="3" fill="#ffffff"><title>23/09: 0</title></circle>
<circle cx="855.0" cy="250.0" r="3" fill="#ffffff"><title>24/09: 0</title></circle>
<text x="65.0" y="276" text-anchor="middle" font-size="12">25/08</text>
<text x="223.0" y="276" text-anchor="middle" font-size="12">31/08</text>
<text x="381.0" y="276" text-anchor="middle" font-size="12">06/09</text>
<text x="539.0" y="276" text-anchor="middle" font-size="12">12/09</text>
<text x="697.0" y="276" text-anchor="middle" font-size="12">18/09</text>
<text x="855.0" y="276" text-anchor="middle" font-size="12">24/09</text>
<text x="450" y="305" text-anchor="middle" fill="#8b949e" font-size="11">Dados públicos do GitHub · atualizado em 24/09/2026</text>
</g></svg>