<svg xmlns="http://www.w3.org/2000/svg" viewBox="0 0 600 80" role="img" aria-labelledby="title desc">
<title id="title">The world is yours. / devilcode</title>
<desc id="desc">Animação alternando a frase branca em Cinzel e devilcode em vermelho na fonte gótica UnifrakturCook.</desc>
<metadata>Letterforms: Cinzel by Natanael Gama; UnifrakturCook by Unifraktur and Cyreal. Google Fonts / SIL Open Font License. Vector lettering; no external font dependencies.</metadata>
<g opacity="0" fill="#ffffff" transform="translate(164.332 54) scale(0.0260000 -0.0260000)"><path d="M342 697V0H277V697ZM599 701V671H20V701ZM599 674V593L589 594V611Q589 636 571.5 653.0Q554 670 530 671V674ZM599 719V690L477 701Q499 701 523.5 704.0Q548 707 569.0 711.0Q590 715 599 719ZM280 73V0H200V10Q200 10 206.5 10.0Q213 10 213 10Q239 10 257.5 28.5Q276 47 277 73ZM339 73H342Q343 47 361.5 28.5Q380 10 406 10Q406 10 412.5 10.0Q419 10 419 10V0H339ZM89 674V671Q64 670 47.0 653.0Q30 636 30 611V594L20 593V674ZM20 719Q30 715 50.5 711.0Q71 707 96.0 704.0Q121 701 142 701L20 690Z"/><animate attributeName="opacity" values="0;1;0;0" keyTimes="0;0.03000;0.49000;1" calcMode="discrete" dur="14s" repeatCount="indefinite"/></g>
<g opacity="0" fill="#ffffff" transform="translate(180.400 54) scale(0.0260000 -0.0260000)"><path d="M622 600V0H558V600ZM189 600V0H125V600ZM568 311V281H178V311ZM128 64V0H55V10Q55 10 61.0 10.0Q67 10 67 10Q91 10 107.5 26.0Q124 42 125 64ZM186 64H189Q189 42 206.0 26.0Q223 10 247 10Q247 10 253.0 10.0Q259 10 259 10V0H186ZM186 536V600H259V590Q259 590 253.0 590.0Q247 590 247 590Q223 590 206.0 574.5Q189 559 189 536ZM128 536H125Q124 559 107.5 574.5Q91 590 67 590Q67 590 61.0 590.0Q55 590 55 590V600H128ZM561 64V0H488V10Q488 10 494.0 10.0Q500 10 500 10Q524 10 540.5 26.0Q557 42 558 64ZM619 64H622Q623 42 639.5 26.0Q656 10 680 10Q680 10 686.0 10.0Q692 10 692 10V0H619ZM619 536V600H692V590Q692 590 686.0 590.0Q680 590 680 590Q656 590 639.5 574.5Q623 559 622 536ZM561 536H558Q557 559 540.5 574.5Q524 590 500 590Q500 590 494.0 590.0Q488 590 488 590V600H561Z"/><animate attributeName="opacity" values="0;1;0;0" keyTimes="0;0.04389;0.48500;1" calcMode="discrete" dur="14s" repeatCount="indefinite"/></g>
<g opacity="0" fill="#ffffff" transform="translate(199.796 54) scale(0.0260000 -0.0260000)"><path d="M191 600V0H127V600ZM460 31 458 0H189V31ZM413 315V285H189V315ZM459 600V569H189V600ZM516 143 461 0H309L343 31Q393 31 423.5 45.5Q454 60 473.0 85.5Q492 111 506 143ZM413 287V230H402V243Q402 260 392.0 272.5Q382 285 361 285V287ZM413 370V313H361V315Q382 315 392.0 327.5Q402 340 402 357V370ZM459 572V503H448V518Q448 539 434.5 554.0Q421 569 398 569V572ZM459 616V590L345 600Q376 600 411.0 605.5Q446 611 459 616ZM129 64 142 0H55V10Q55 10 62.0 10.0Q69 10 69 10Q94 10 110.0 26.0Q126 42 127 64ZM129 537H127Q126 560 110.0 575.0Q94 590 69 590Q69 590 62.0 590.0Q55 590 55 590V600H142Z"/><animate attributeName="opacity" values="0;1;0;0" keyTimes="0;0.05778;0.48000;1" calcMode="discrete" dur="14s" repeatCount="indefinite"/></g>
<g opacity="0" fill="#ffffff" transform="translate(220.492 54) scale(0.0260000 -0.0260000)"><path d="M57 594H137L299 101L290 -12ZM468 616 476 535 321 99Q321 99 316.0 81.5Q311 64 305.5 38.5Q300 13 299 -12H290L271 77L458 616ZM468 615 660 126 637 -12 434 507ZM836 594 670 99Q670 99 664.5 81.0Q659 63 653.5 37.5Q648 12 647 -12H637L625 87L779 594ZM759 530Q770 562 757.5 576.0Q745 590 729 590H721V600H904V590Q904 590 900.5 590.0Q897 590 897 590Q866 590 845.0 573.0Q824 556 815 530ZM158 531 82 530Q72 556 52.0 573.0Q32 590 0 590Q0 590 -4.0 590.0Q-8 590 -8 590V600H198V590H190Q174 590 161.0 576.5Q148 563 158 531Z"/><animate attributeName="opacity" values="0;1;0;0" keyTimes="0;0.08556;0.47000;1" calcMode="discrete" dur="14s" repeatCount="indefinite"/></g>
<g opacity="0" fill="#ffffff" transform="translate(243.866 54) scale(0.0260000 -0.0260000)"><path d="M387 614Q457 614 518.5 591.5Q580 569 626.5 527.0Q673 485 699.0 427.5Q725 370 725 300Q725 230 699.0 172.5Q673 115 626.5 73.0Q580 31 518.5 8.5Q457 -14 387 -14Q317 -14 256.0 8.5Q195 31 148.5 73.0Q102 115 76.0 172.5Q50 230 50 300Q50 370 76.0 427.5Q102 485 148.5 527.0Q195 569 256.0 591.5Q317 614 387 614ZM387 16Q461 16 521.0 52.0Q581 88 616.0 152.0Q651 216 651 300Q651 385 616.0 448.5Q581 512 521.0 548.0Q461 584 387 584Q314 584 254.0 548.0Q194 512 159.0 448.5Q124 385 124 300Q124 216 159.0 152.0Q194 88 254.0 52.0Q314 16 387 16Z"/><animate attributeName="opacity" values="0;1;0;0" keyTimes="0;0.09944;0.46500;1" calcMode="discrete" dur="14s" repeatCount="indefinite"/></g>
<g opacity="0" fill="#ffffff" transform="translate(263.990 54) scale(0.0260000 -0.0260000)"><path d="M177 600H306Q353 600 390.5 589.0Q428 578 454.5 557.0Q481 536 495.0 506.0Q509 476 509 438Q509 396 489.0 360.0Q469 324 433.5 301.0Q398 278 353 273Q370 266 392.5 242.0Q415 218 431 195Q431 195 444.0 177.5Q457 160 477.5 134.5Q498 109 518 86Q539 63 556.5 46.0Q574 29 594.5 19.5Q615 10 642 10V0H611Q556 0 520.5 14.0Q485 28 463.0 48.5Q441 69 425 88Q421 93 406.5 113.5Q392 134 375.0 158.0Q358 182 344.0 201.5Q330 221 327 225Q307 251 281.0 271.5Q255 292 226 292V302Q226 302 242.0 301.5Q258 301 283 302Q311 303 339.0 306.5Q367 310 391.5 328.0Q416 346 430 388Q434 399 436.0 414.0Q438 429 437 445Q436 473 426.5 495.0Q417 517 399.5 533.0Q382 549 358.0 558.0Q334 567 304 568Q257 570 222.0 569.0Q187 568 187 569Q187 570 184.5 577.5Q182 585 179.5 592.5Q177 600 177 600ZM189 600V0H125V600ZM128 64 140 0H55V10Q55 10 62.0 10.0Q69 10 69 10Q93 10 109.0 26.0Q125 42 126 64ZM128 537H126Q125 560 109.0 575.0Q93 590 69 590Q69 590 62.0 590.0Q55 590 55 590V600H140ZM186 64H189Q190 42 206.0 26.0Q222 10 246 10Q246 10 252.5 10.0Q259 10 259 10L260 0H174Z"/><animate attributeName="opacity" values="0;1;0;0" keyTimes="0;0.11333;0.46000;1" calcMode="discrete" dur="14s" repeatCount="indefinite"/></g>
<g opacity="0" fill="#ffffff" transform="translate(280.292 54) scale(0.0260000 -0.0260000)"><path d="M191 600V0H127V600ZM460 31 458 0H189V31ZM516 143 461 0H309L343 31Q393 31 423.5 45.5Q454 60 473.0 85.5Q492 111 506 143ZM129 64 142 0H55V10Q55 10 62.0 10.0Q69 10 69 10Q94 10 110.0 26.0Q126 42 127 64ZM188 536V600H262V590Q262 590 256.0 590.0Q250 590 250 590Q226 590 208.5 574.5Q191 559 191 536ZM129 536H127Q126 559 109.0 574.5Q92 590 67 590Q67 590 61.0 590.0Q55 590 55 590V600H129Z"/><animate attributeName="opacity" values="0;1;0;0" keyTimes="0;0.12722;0.45500;1" calcMode="discrete" dur="14s" repeatCount="indefinite"/></g>
<g opacity="0" fill="#ffffff" transform="translate(294.228 54) scale(0.0260000 -0.0260000)"><path d="M389 600Q488 600 560.0 564.0Q632 528 671.0 460.5Q710 393 710 300Q710 207 671.0 140.0Q632 73 560.0 36.5Q488 0 389 0H176L174 30Q244 30 291.5 30.0Q339 30 364.0 30.0Q389 30 389 30Q505 30 571.5 102.5Q638 175 638 300Q638 425 571.5 497.5Q505 570 389 570Q389 570 363.0 570.0Q337 570 287.0 570.0Q237 570 164 570V600ZM190 600V0H125V600ZM127 65V0H55V10Q55 10 61.5 10.0Q68 10 68 10Q92 10 108.0 26.5Q124 43 125 65ZM127 535H125Q124 559 107.5 574.5Q91 590 67 590Q67 590 61.0 590.0Q55 590 55 590V600H127Z"/><animate attributeName="opacity" values="0;1;0;0" keyTimes="0;0.14111;0.45000;1" calcMode="discrete" dur="14s" repeatCount="indefinite"/></g>
<g opacity="0" fill="#ffffff" transform="translate(320.488 54) scale(0.0260000 -0.0260000)"><path d="M200 600V0H137V600ZM140 64V0H55V10Q55 10 62.0 10.0Q69 10 69 10Q97 10 116.5 26.0Q136 42 137 64ZM197 64H200Q201 42 220.5 26.0Q240 10 268 10Q268 10 274.5 10.0Q281 10 281 10L282 0H197ZM197 536V600H282L281 590Q281 590 274.5 590.0Q268 590 268 590Q240 590 220.5 574.5Q201 559 200 536ZM140 536H137Q136 559 116.5 574.5Q97 590 69 590Q68 590 61.5 590.0Q55 590 55 590V600H140Z"/><animate attributeName="opacity" values="0;1;0;0" keyTimes="0;0.16889;0.44000;1" calcMode="discrete" dur="14s" repeatCount="indefinite"/></g>
<g opacity="0" fill="#ffffff" transform="translate(329.224 54) scale(0.0260000 -0.0260000)"><path d="M234 614Q262 614 283.0 612.0Q304 610 319.5 607.5Q335 605 346.5 601.5Q358 598 367 595L368 496H356Q356 537 328.0 560.5Q300 584 241 584Q191 584 155.5 556.5Q120 529 121 489Q121 476 124.5 462.5Q128 449 136.5 436.0Q145 423 160 410L362 254Q385 235 396.0 205.5Q407 176 408 147Q409 103 385.0 66.0Q361 29 320.5 7.5Q280 -14 231 -14Q202 -14 168.5 -9.0Q135 -4 106.0 6.5Q77 17 58 33Q55 47 55.0 68.5Q55 90 58.5 114.0Q62 138 68 157H80Q76 112 93.0 80.0Q110 48 143.0 31.5Q176 15 220 16Q282 18 317.5 47.5Q353 77 353 126Q353 150 344.5 169.5Q336 189 317 206L117 360Q89 384 79.0 413.0Q69 442 69 468Q69 509 91.0 542.0Q113 575 150.5 594.5Q188 614 234 614ZM366 605 367 587H296V605Z"/><animate attributeName="opacity" values="0;1;0;0" keyTimes="0;0.18278;0.43500;1" calcMode="discrete" dur="14s" repeatCount="indefinite"/></g>
<g opacity="0" fill="#ffffff" transform="translate(347.736 54) scale(0.0260000 -0.0260000)"><path d="M149 599 334 270 293 235 62 599ZM349 258V0H284V258ZM517 599H580L342 237L305 248ZM479 536Q490 556 480.0 573.0Q470 590 448 590Q448 590 442.0 590.0Q436 590 436 590V600H645V590H633Q605 590 580.5 574.5Q556 559 542 539ZM184 537 99 540Q83 563 59.5 576.5Q36 590 7 590H-5V600H227V590Q227 590 221.0 590.0Q215 590 215 590Q193 590 183.5 572.5Q174 555 184 537ZM287 64V0H214V10Q215 10 220.5 10.0Q226 10 226 10Q250 10 266.5 26.0Q283 42 284 64ZM346 64H349Q350 42 366.5 26.0Q383 10 407 10Q407 10 413.0 10.0Q419 10 419 10V0H346Z"/><animate attributeName="opacity" values="0;1;0;0" keyTimes="0;0.21056;0.42500;1" calcMode="discrete" dur="14s" repeatCount="indefinite"/></g>
<g opacity="0" fill="#ffffff" transform="translate(364.376 54) scale(0.0260000 -0.0260000)"><path d="M387 614Q457 614 518.5 591.5Q580 569 626.5 527.0Q673 485 699.0 427.5Q725 370 725 300Q725 230 699.0 172.5Q673 115 626.5 73.0Q580 31 518.5 8.5Q457 -14 387 -14Q317 -14 256.0 8.5Q195 31 148.5 73.0Q102 115 76.0 172.5Q50 230 50 300Q50 370 76.0 427.5Q102 485 148.5 527.0Q195 569 256.0 591.5Q317 614 387 614ZM387 16Q461 16 521.0 52.0Q581 88 616.0 152.0Q651 216 651 300Q651 385 616.0 448.5Q581 512 521.0 548.0Q461 584 387 584Q314 584 254.0 548.0Q194 512 159.0 448.5Q124 385 124 300Q124 216 159.0 152.0Q194 88 254.0 52.0Q314 16 387 16Z"/><animate attributeName="opacity" values="0;1;0;0" keyTimes="0;0.22444;0.42000;1" calcMode="discrete" dur="14s" repeatCount="indefinite"/></g>
<g opacity="0" fill="#ffffff" transform="translate(384.500 54) scale(0.0260000 -0.0260000)"><path d="M167 600V222Q167 125 216.5 69.0Q266 13 352 13Q447 13 501.5 66.0Q556 119 556 211V600H602V211Q602 107 535.5 46.5Q469 -14 353 -14Q238 -14 170.5 46.0Q103 106 103 210V600ZM105 600V547H103Q102 565 88.5 577.5Q75 590 55 590Q55 590 47.5 590.0Q40 590 40 590V600ZM230 600V590Q230 590 222.5 590.0Q215 590 215 590Q196 590 181.5 577.5Q167 565 167 547H165V600ZM558 600V547H556Q556 565 542.0 577.5Q528 590 508 590Q508 590 500.5 590.0Q493 590 493 590V600ZM665 600V590Q665 590 657.5 590.0Q650 590 650 590Q631 590 617.0 577.5Q603 565 602 547H600V600Z"/><animate attributeName="opacity" values="0;1;0;0" keyTimes="0;0.23833;0.41500;1" calcMode="discrete" dur="14s" repeatCount="indefinite"/></g>
<g opacity="0" fill="#ffffff" transform="translate(402.700 54) scale(0.0260000 -0.0260000)"><path d="M177 600H306Q353 600 390.5 589.0Q428 578 454.5 557.0Q481 536 495.0 506.0Q509 476 509 438Q509 396 489.0 360.0Q469 324 433.5 301.0Q398 278 353 273Q370 266 392.5 242.0Q415 218 431 195Q431 195 444.0 177.5Q457 160 477.5 134.5Q498 109 518 86Q539 63 556.5 46.0Q574 29 594.5 19.5Q615 10 642 10V0H611Q556 0 520.5 14.0Q485 28 463.0 48.5Q441 69 425 88Q421 93 406.5 113.5Q392 134 375.0 158.0Q358 182 344.0 201.5Q330 221 327 225Q307 251 281.0 271.5Q255 292 226 292V302Q226 302 242.0 301.5Q258 301 283 302Q311 303 339.0 306.5Q367 310 391.5 328.0Q416 346 430 388Q434 399 436.0 414.0Q438 429 437 445Q436 473 426.5 495.0Q417 517 399.5 533.0Q382 549 358.0 558.0Q334 567 304 568Q257 570 222.0 569.0Q187 568 187 569Q187 570 184.5 577.5Q182 585 179.5 592.5Q177 600 177 600ZM189 600V0H125V600ZM128 64 140 0H55V10Q55 10 62.0 10.0Q69 10 69 10Q93 10 109.0 26.0Q125 42 126 64ZM128 537H126Q125 560 109.0 575.0Q93 590 69 590Q69 590 62.0 590.0Q55 590 55 590V600H140ZM186 64H189Q190 42 206.0 26.0Q222 10 246 10Q246 10 252.5 10.0Q259 10 259 10L260 0H174Z"/><animate attributeName="opacity" values="0;1;0;0" keyTimes="0;0.25222;0.41000;1" calcMode="discrete" dur="14s" repeatCount="indefinite"/></g>
<g opacity="0" fill="#ffffff" transform="translate(419.002 54) scale(0.0260000 -0.0260000)"><path d="M234 614Q262 614 283.0 612.0Q304 610 319.5 607.5Q335 605 346.5 601.5Q358 598 367 595L368 496H356Q356 537 328.0 560.5Q300 584 241 584Q191 584 155.5 556.5Q120 529 121 489Q121 476 124.5 462.5Q128 449 136.5 436.0Q145 423 160 410L362 254Q385 235 396.0 205.5Q407 176 408 147Q409 103 385.0 66.0Q361 29 320.5 7.5Q280 -14 231 -14Q202 -14 168.5 -9.0Q135 -4 106.0 6.5Q77 17 58 33Q55 47 55.0 68.5Q55 90 58.5 114.0Q62 138 68 157H80Q76 112 93.0 80.0Q110 48 143.0 31.5Q176 15 220 16Q282 18 317.5 47.5Q353 77 353 126Q353 150 344.5 169.5Q336 189 317 206L117 360Q89 384 79.0 413.0Q69 442 69 468Q69 509 91.0 542.0Q113 575 150.5 594.5Q188 614 234 614ZM366 605 367 587H296V605Z"/><animate attributeName="opacity" values="0;1;0;0" keyTimes="0;0.26611;0.40500;1" calcMode="discrete" dur="14s" repeatCount="indefinite"/></g>
<g opacity="0" fill="#ffffff" transform="translate(431.014 54) scale(0.0260000 -0.0260000)"><path d="M90 -4Q71 -4 58.0 9.0Q45 22 45 41Q45 60 58.0 73.0Q71 86 90 86Q109 86 122.0 73.0Q135 60 135 41Q135 22 122.0 9.0Q109 -4 90 -4Z"/><animate attributeName="opacity" values="0;1;0;0" keyTimes="0;0.28000;0.40000;1" calcMode="discrete" dur="14s" repeatCount="indefinite"/></g>
<g opacity="0" fill="#e53935" transform="translate(229.402 54) scale(0.0205078 -0.0205078)"><path d="M357 1025Q280 1156 154 1301L419 1440Q779 1001 819 404Q694 310 607.5 230.0Q521 150 465 31Q355 80 245.5 130.5Q136 181 44 265Q40 416 38.0 568.0Q36 720 34 872Q274 982 357 1025ZM562 286Q562 296 562 307Q562 643 404 946Q295 894 274 758Q267 705 267.0 623.0Q267 541 287 411Q427 300 562 286Z"/><animate attributeName="opacity" values="0;1;0;0" keyTimes="0;0.53000;0.98000;1" calcMode="discrete" dur="14s" repeatCount="indefinite"/></g>
<g opacity="0" fill="#e53935" transform="translate(246.669 54) scale(0.0205078 -0.0205078)"><path d="M520 31 41 222Q68 372 68.0 534.5Q68 697 37 874L382 1077V1080L384 1079H385L774 800L369 374Q410 325 460.0 320.0Q510 315 542.5 315.0Q575 315 619.5 318.5Q664 322 729 324Q676 250 624.0 177.0Q572 104 520 31ZM354 810Q296 810 296 652Q296 562 326 472Q326 463 329 457L490 627Q507 645 507.0 663.0Q507 681 489.5 709.0Q472 737 454 755Q391 810 354 810Z"/><animate attributeName="opacity" values="0;1;0;0" keyTimes="0;0.55125;0.96750;1" calcMode="discrete" dur="14s" repeatCount="indefinite"/></g>
<g opacity="0" fill="#e53935" transform="translate(262.953 54) scale(0.0205078 -0.0205078)"><path d="M529 14Q185 147 64 199Q98 266 116.5 305.5Q135 345 138 457L139 662Q139 742 73.5 789.0Q8 836 -18 854L205 1084L398 909L539 1084Q615 1051 694 966Q863 785 894 588Q898 565 898 545Q898 478 860 437ZM394 371Q532 307 580 307Q588 307 594 309Q680 329 680 418Q680 440 675 467Q650 594 585.0 677.0Q520 760 447 807Q402 765 400 704Z"/><animate attributeName="opacity" values="0;1;0;0" keyTimes="0;0.57250;0.95500;1" calcMode="discrete" dur="14s" repeatCount="indefinite"/></g>
<g opacity="0" fill="#e53935" transform="translate(282.189 54) scale(0.0205078 -0.0205078)"><path d="M29 890 180 1080 404 975Q392 934 378.0 895.0Q364 856 364 815L350 409Q350 404 350 400Q350 353 380.0 322.0Q410 291 449 275L249 31L37 202Q95 271 95 340L102 794Q102 842 29 890ZM59 1089 139 1484 436 1365Z"/><animate attributeName="opacity" values="0;1;0;0" keyTimes="0;0.59375;0.94250;1" calcMode="discrete" dur="14s" repeatCount="indefinite"/></g>
<g opacity="0" fill="#e53935" transform="translate(291.828 54) scale(0.0205078 -0.0205078)"><path d="M537 259Q365 69 315 15Q241 71 167.5 127.5Q94 184 21 240Q89 299 110.0 349.0Q131 399 132 444L137 1049Q137 1114 131.5 1204.0Q126 1294 87 1356L417 1535Q390 1415 385.5 1286.0Q381 1157 381 1024L377 437Q377 362 391.0 352.0Q405 342 537 259Z"/><animate attributeName="opacity" values="0;1;0;0" keyTimes="0;0.61500;0.93000;1" calcMode="discrete" dur="14s" repeatCount="indefinite"/></g>
<g opacity="0" fill="#e53935" transform="translate(303.230 54) scale(0.0205078 -0.0205078)"><path d="M692 362 354 29Q34 241 34 523Q34 662 124.0 797.0Q214 932 414 1092Q500 1036 591.0 982.5Q682 929 770 876L570 700Q510 737 474.5 763.5Q439 790 399.5 808.0Q360 826 342.5 826.0Q325 826 305 806Q243 743 243 664Q243 525 405 367Q446 329 484 329Q551 329 606 421Q627 406 648.5 391.5Q670 377 692 362Z"/><animate attributeName="opacity" values="0;1;0;0" keyTimes="0;0.63625;0.91750;1" calcMode="discrete" dur="14s" repeatCount="indefinite"/></g>
<g opacity="0" fill="#e53935" transform="translate(319.329 54) scale(0.0205078 -0.0205078)"><path d="M80 801Q313 957 467 1084Q544 1051 622 966Q791 785 822 588Q826 565 826 544Q826 478 789 437L457 14L29 225Q97 366 97 469L95 702Q92 774 80 801ZM349 836 346 411Q355 362 415.0 334.5Q475 307 494.5 307.0Q514 307 521 309Q609 329 609 420Q609 441 604 467Q570 632 505.5 716.5Q441 801 349 836Z"/><animate attributeName="opacity" values="0;1;0;0" keyTimes="0;0.65750;0.90500;1" calcMode="discrete" dur="14s" repeatCount="indefinite"/></g>
<g opacity="0" fill="#e53935" transform="translate(337.047 54) scale(0.0205078 -0.0205078)"><path d="M357 1025Q280 1156 154 1301L419 1440Q779 1001 819 404Q694 310 607.5 230.0Q521 150 465 31Q355 80 245.5 130.5Q136 181 44 265Q40 416 38.0 568.0Q36 720 34 872Q274 982 357 1025ZM562 286Q562 296 562 307Q562 643 404 946Q295 894 274 758Q267 705 267.0 623.0Q267 541 287 411Q427 300 562 286Z"/><animate attributeName="opacity" values="0;1;0;0" keyTimes="0;0.67875;0.89250;1" calcMode="discrete" dur="14s" repeatCount="indefinite"/></g>
<g opacity="0" fill="#e53935" transform="translate(354.315 54) scale(0.0205078 -0.0205078)"><path d="M520 31 41 222Q68 372 68.0 534.5Q68 697 37 874L382 1077V1080L384 1079H385L774 800L369 374Q410 325 460.0 320.0Q510 315 542.5 315.0Q575 315 619.5 318.5Q664 322 729 324Q676 250 624.0 177.0Q572 104 520 31ZM354 810Q296 810 296 652Q296 562 326 472Q326 463 329 457L490 627Q507 645 507.0 663.0Q507 681 489.5 709.0Q472 737 454 755Q391 810 354 810Z"/><animate attributeName="opacity" values="0;1;0;0" keyTimes="0;0.70000;0.88000;1" calcMode="discrete" dur="14s" repeatCount="indefinite"/></g>
</svg>
